<svg id="visual" viewBox="0 0 900 600" width="900" height="600" xmlns="http://www.w3.org/2000/svg" xmlns:xlink="http://www.w3.org/1999/xlink" version="1.1">
    <!-- Linear gradient for the rectangle -->
    <defs>
        <linearGradient id="rectGradient" x1="0%" y1="0%" x2="100%" y2="100%">
            <stop offset="0%" stop-color="#2C3E50"/> <!-- Adjusted blue color -->
            <stop offset="50%" stop-color="#2980B9"/> <!-- Adjusted blue color -->
            <stop offset="100%" stop-color="#3498DB"/> <!-- Adjusted blue color -->
        </linearGradient>
    </defs>
    <!-- Rectangular shape filled with linear gradient -->
    <rect x="0" y="0" width="900" height="600" fill="url(#rectGradient)"></rect>
    
    <!-- Radial gradient for the path -->
    <defs>
        <radialGradient id="pathGradient" cx="50%" cy="50%" r="50%" fx="50%" fy="50%">
            <stop offset="0%" stop-color="#2C3E50"/> <!-- Adjusted blue color -->
            <stop offset="50%" stop-color="#2980B9"/> <!-- Adjusted blue color -->
            <stop offset="100%" stop-color="#3498DB"/> <!-- Adjusted blue color -->
        </radialGradient>
    </defs>
    <!-- Path shape filled with radial gradient -->
    <g id="pulsingBlob" transform="translate(912.7426742954078 -44.336843301247384)">
        <path d="M122.1 -108.3C195.9 -83.5 319.5 -80.8 335.9 -50C352.3 -19.3 261.5 39.6 206.3 104C151.1 168.4 131.7 238.3 83.2 277C34.7 315.7 -42.9 323.3 -98.8 293.4C-154.7 263.5 -189.1 196.3 -242.4 128.2C-295.7 60.1 -368 -8.7 -363.1 -68.8C-358.2 -128.9 -276.2 -180.1 -202.8 -205C-129.4 -229.9 -64.7 -228.4 -20.3 -204.3C24.1 -180.1 48.2 -133.1 122.1 -108.3" fill="url(#pathGradient)"></path>
    </g>
</svg>
